<svg xmlns="http://www.w3.org/2000/svg" width="512" height="512" viewBox="0 0 512 512">
  <rect width="512" height="512" rx="100" fill="#059669"/>
  <path d="M160 210c0-27.6 22.4-50 50-50s50 22.4 50 50-22.4 50-50 50-50-22.4-50-50zm152 0c0-27.6 22.4-50 50-50s50 22.4 50 50-22.4 50-50 50-50-22.4-50-50zM100 400c0-44.2 35.8-80 80-80h60c15.9 0 30.6 4.6 43 12.6 12.4-8 27.1-12.6 43-12.6h60c44.2 0 80 35.8 80 80v20H100v-20z" fill="white"/>
  <path d="M256 340c-15 0-28 10-28 25s13 25 28 25 28-10 28-25-13-25-28-25z" fill="#fcd34d"/>
</svg>
